<?xml version="1.0" encoding="utf-8"?>
<!-- Generator: Adobe Illustrator 24.3.0, SVG Export Plug-In . SVG Version: 6.00 Build 0)  -->
<!DOCTYPE svg PUBLIC "-//W3C//DTD SVG 1.1//EN" "http://www.w3.org/Graphics/SVG/1.1/DTD/svg11.dtd" [
	<!ENTITY st0 "fill:none;stroke:#12100B;stroke-width:1.5;stroke-miterlimit:10;">
]>
<svg version="1.1" id="레이어_1" xmlns="http://www.w3.org/2000/svg" xmlns:xlink="http://www.w3.org/1999/xlink" x="0px"
	 y="0px" viewBox="0 0 60 60" style="enable-background:new 0 0 60 60;" xml:space="preserve">
<g id="feedback">
	<path style="&st0;" d="M33.4186478,11.8149996c0-0.3099995-0.1800003-0.3800001-0.3899994-0.1599998L21.7486515,23.0550003
		c-0.2752762,0.2478218-0.6297512,0.3896103-1,0.3999996H10.7086506c-0.3108902,0.005455-0.5600481,0.2590618-0.5600004,0.5699997
		v11.9999981c-0.0000477,0.3109398,0.2491102,0.5645447,0.5600004,0.5699997h10.0800018
		c0.3702488,0.0103912,0.7247238,0.1521797,1,0.4000015l11.2099972,11.3499985
		c0.2200012,0.2200012,0.4000015,0.1500015,0.4000015-0.1599998L33.4186478,11.8149996z"/>
	<path style="&st0;" d="M38.4386482,20.3950005c5.3046951,4.9197998,5.6167107,13.2083893,0.6969109,18.5130844
		c-0.2234802,0.240963-0.4559479,0.4734306-0.6969109,0.6969109"/>
	<path style="&st0;" d="M43.3286514,15.3649998c8.0826874,7.266674,8.7441978,19.7097874,1.4775238,27.7924747
		c-0.4659958,0.5183258-0.959198,1.011528-1.4775238,1.4775238"/>
</g>
</svg>
