<svg id="Icons" xmlns="http://www.w3.org/2000/svg" viewBox="0 0 60 60"><defs><style>.cls-1,.cls-2{fill:none;stroke:#12100b;stroke-miterlimit:10;stroke-width:1.5px;}.cls-2{stroke-linecap:round;}</style></defs><title>80. Samsung Flow (Tablet)</title><path class="cls-1" d="M35.73,35V47.73a2.77,2.77,0,0,0,2.76,2.77h14a2.78,2.78,0,0,0,2.77-2.77V20a2.78,2.78,0,0,0-2.77-2.77h-14A2.77,2.77,0,0,0,35.73,20v3.92"/><line class="cls-2" x1="43.1" y1="46.54" x2="47.88" y2="46.54"/><path class="cls-1" d="M48.38,17.2V11a1.5,1.5,0,0,0-1.5-1.5H6.25A1.51,1.51,0,0,0,4.75,11V40.15a1.51,1.51,0,0,0,1.5,1.5H35.47"/><line class="cls-1" x1="47.07" y1="29.43" x2="24.58" y2="29.43"/><polyline class="cls-1" points="28.75 33.78 24.39 29.43 28.75 25.07"/><polyline class="cls-1" points="42.7 25.07 47.07 29.43 42.7 33.78"/></svg>