<svg id="Icons" xmlns="http://www.w3.org/2000/svg" viewBox="0 0 60 60"><defs><style>.cls-1{fill:none;stroke:#12100b;stroke-miterlimit:10;stroke-width:1.5px;}.cls-2{fill:#12100b;}</style></defs><title>256. Wireless Charging (Battery. Life)</title><path class="cls-1" d="M22.1,12.4a11.92,11.92,0,0,1,16.45,0"/><path class="cls-1" d="M17.58,8.08a17.87,17.87,0,0,1,25.5,0"/><polygon class="cls-2" points="37.92 30.49 37.92 23.51 33.37 23.51 27.37 23.51 22.81 23.51 22.81 30.49 37.92 30.49"/><rect class="cls-2" x="22.81" y="32.96" width="15.12" height="7.42"/><rect class="cls-2" x="22.81" y="42.86" width="15.12" height="7.24"/><path class="cls-1" d="M25.88,20H20.12a1,1,0,0,0-1,1V52.73a1,1,0,0,0,1,1H40.54a6.62,6.62,0,0,0,1,0V21a1,1,0,0,0-1-1H34.78"/><path class="cls-1" d="M34.78,20.73V15.92a.3.3,0,0,0-.3-.3h-8.3a.29.29,0,0,0-.3.3v4.81"/></svg>